<mxfile host="app.diagrams.net" modified="2024-03-16T13:29:33.685Z" agent="Mozilla/5.0 (Windows NT 10.0; Win64; x64) AppleWebKit/537.36 (KHTML, like Gecko) Chrome/122.0.0.0 Safari/537.36 Edg/122.0.0.0" etag="PFBN4CzgZ8x_SI1bZ_9V" version="24.0.6" type="github">
  <diagram name="Page-1" id="0783ab3e-0a74-02c8-0abd-f7b4e66b4bec">
    <mxGraphModel dx="3090" dy="1443" grid="1" gridSize="10" guides="1" tooltips="1" connect="1" arrows="1" fold="1" page="1" pageScale="1" pageWidth="850" pageHeight="1100" background="none" math="0" shadow="0">
      <root>
        <mxCell id="0" />
        <mxCell id="1" parent="0" />
        <mxCell id="1c1d494c118603dd-1" value="Pool" style="swimlane;html=1;childLayout=stackLayout;startSize=20;rounded=0;shadow=0;comic=0;labelBackgroundColor=none;strokeWidth=1;fontFamily=Verdana;fontSize=12;align=center;" parent="1" vertex="1">
          <mxGeometry x="40" y="20" width="850" height="990" as="geometry" />
        </mxCell>
        <mxCell id="1c1d494c118603dd-3" value="system" style="swimlane;html=1;startSize=20;" parent="1c1d494c118603dd-1" vertex="1">
          <mxGeometry y="20" width="250" height="970" as="geometry" />
        </mxCell>
        <mxCell id="x3NgMWRlayC8SavMCuSD-25" value="" style="edgeStyle=orthogonalEdgeStyle;rounded=0;orthogonalLoop=1;jettySize=auto;html=1;" edge="1" parent="1c1d494c118603dd-3" source="x3NgMWRlayC8SavMCuSD-23" target="x3NgMWRlayC8SavMCuSD-22">
          <mxGeometry relative="1" as="geometry" />
        </mxCell>
        <mxCell id="x3NgMWRlayC8SavMCuSD-23" value="execute request" style="rounded=1;whiteSpace=wrap;html=1;shadow=0;comic=0;labelBackgroundColor=none;strokeWidth=1;fontFamily=Verdana;fontSize=12;align=center;arcSize=50;" vertex="1" parent="1c1d494c118603dd-3">
          <mxGeometry x="80" y="580" width="100" height="30" as="geometry" />
        </mxCell>
        <mxCell id="x3NgMWRlayC8SavMCuSD-22" value="return result" style="rounded=1;whiteSpace=wrap;html=1;shadow=0;comic=0;labelBackgroundColor=none;strokeWidth=1;fontFamily=Verdana;fontSize=12;align=center;arcSize=50;" vertex="1" parent="1c1d494c118603dd-3">
          <mxGeometry x="80" y="650" width="100" height="30" as="geometry" />
        </mxCell>
        <mxCell id="x3NgMWRlayC8SavMCuSD-85" style="edgeStyle=orthogonalEdgeStyle;rounded=0;orthogonalLoop=1;jettySize=auto;html=1;" edge="1" parent="1c1d494c118603dd-1" source="x3NgMWRlayC8SavMCuSD-46" target="x3NgMWRlayC8SavMCuSD-23">
          <mxGeometry relative="1" as="geometry">
            <Array as="points">
              <mxPoint x="550" y="580" />
              <mxPoint x="130" y="580" />
            </Array>
          </mxGeometry>
        </mxCell>
        <mxCell id="1c1d494c118603dd-4" value="programmer" style="swimlane;html=1;startSize=20;" parent="1c1d494c118603dd-1" vertex="1">
          <mxGeometry x="250" y="20" width="600" height="970" as="geometry" />
        </mxCell>
        <mxCell id="x3NgMWRlayC8SavMCuSD-88" style="edgeStyle=orthogonalEdgeStyle;rounded=0;orthogonalLoop=1;jettySize=auto;html=1;" edge="1" parent="1c1d494c118603dd-4" source="60571a20871a0731-4" target="60571a20871a0731-8">
          <mxGeometry relative="1" as="geometry" />
        </mxCell>
        <mxCell id="60571a20871a0731-4" value="" style="ellipse;whiteSpace=wrap;html=1;rounded=0;shadow=0;comic=0;labelBackgroundColor=none;strokeWidth=1;fillColor=#000000;fontFamily=Verdana;fontSize=12;align=center;" parent="1c1d494c118603dd-4" vertex="1">
          <mxGeometry x="280" y="40" width="40" height="40" as="geometry" />
        </mxCell>
        <mxCell id="60571a20871a0731-8" value="start program" style="rounded=1;whiteSpace=wrap;html=1;shadow=0;comic=0;labelBackgroundColor=none;strokeWidth=1;fontFamily=Verdana;fontSize=12;align=center;arcSize=50;" parent="1c1d494c118603dd-4" vertex="1">
          <mxGeometry x="250" y="105" width="100" height="30" as="geometry" />
        </mxCell>
        <mxCell id="1c1d494c118603dd-5" value="&lt;font style=&quot;font-size: 8px;&quot;&gt;request data on area (id, name, region, country, residents)&lt;/font&gt;" style="rounded=1;whiteSpace=wrap;html=1;shadow=0;comic=0;labelBackgroundColor=none;strokeWidth=1;fontFamily=Verdana;fontSize=12;align=center;arcSize=50;" parent="1c1d494c118603dd-4" vertex="1">
          <mxGeometry x="80" y="205" width="140" height="40" as="geometry" />
        </mxCell>
        <mxCell id="1c1d494c118603dd-45" style="edgeStyle=none;rounded=0;html=1;labelBackgroundColor=none;startArrow=none;startFill=0;startSize=5;endArrow=classicThin;endFill=1;endSize=5;jettySize=auto;orthogonalLoop=1;strokeWidth=1;fontFamily=Verdana;fontSize=12" parent="1c1d494c118603dd-4" source="1c1d494c118603dd-19" target="60571a20871a0731-5" edge="1">
          <mxGeometry relative="1" as="geometry" />
        </mxCell>
        <mxCell id="1c1d494c118603dd-19" value="stop program" style="rounded=1;whiteSpace=wrap;html=1;shadow=0;comic=0;labelBackgroundColor=none;strokeWidth=1;fontFamily=Verdana;fontSize=12;align=center;arcSize=50;" parent="1c1d494c118603dd-4" vertex="1">
          <mxGeometry x="250" y="820" width="100" height="30" as="geometry" />
        </mxCell>
        <mxCell id="60571a20871a0731-5" value="" style="shape=mxgraph.bpmn.shape;html=1;verticalLabelPosition=bottom;labelBackgroundColor=#ffffff;verticalAlign=top;perimeter=ellipsePerimeter;outline=end;symbol=terminate;rounded=0;shadow=0;comic=0;strokeWidth=1;fontFamily=Verdana;fontSize=12;align=center;" parent="1c1d494c118603dd-4" vertex="1">
          <mxGeometry x="282.5" y="900" width="40" height="40" as="geometry" />
        </mxCell>
        <mxCell id="x3NgMWRlayC8SavMCuSD-56" style="edgeStyle=orthogonalEdgeStyle;rounded=0;orthogonalLoop=1;jettySize=auto;html=1;entryX=1;entryY=0.5;entryDx=0;entryDy=0;" edge="1" parent="1c1d494c118603dd-4" target="x3NgMWRlayC8SavMCuSD-43">
          <mxGeometry relative="1" as="geometry">
            <mxPoint x="302.42857142857156" y="185" as="sourcePoint" />
          </mxGeometry>
        </mxCell>
        <mxCell id="x3NgMWRlayC8SavMCuSD-57" style="edgeStyle=orthogonalEdgeStyle;rounded=0;orthogonalLoop=1;jettySize=auto;html=1;entryX=1;entryY=0.75;entryDx=0;entryDy=0;" edge="1" parent="1c1d494c118603dd-4" target="x3NgMWRlayC8SavMCuSD-44">
          <mxGeometry relative="1" as="geometry">
            <mxPoint x="302.42857142857156" y="185" as="sourcePoint" />
          </mxGeometry>
        </mxCell>
        <mxCell id="x3NgMWRlayC8SavMCuSD-24" value="" style="edgeStyle=orthogonalEdgeStyle;rounded=0;orthogonalLoop=1;jettySize=auto;html=1;" edge="1" parent="1c1d494c118603dd-4" source="x3NgMWRlayC8SavMCuSD-21" target="1c1d494c118603dd-19">
          <mxGeometry relative="1" as="geometry" />
        </mxCell>
        <mxCell id="x3NgMWRlayC8SavMCuSD-21" value="recieve result" style="rounded=1;whiteSpace=wrap;html=1;shadow=0;comic=0;labelBackgroundColor=none;strokeWidth=1;fontFamily=Verdana;fontSize=12;align=center;arcSize=50;" vertex="1" parent="1c1d494c118603dd-4">
          <mxGeometry x="250" y="730" width="100" height="30" as="geometry" />
        </mxCell>
        <mxCell id="x3NgMWRlayC8SavMCuSD-38" value="&lt;font style=&quot;font-size: 8px;&quot;&gt;request data on areas with population of &amp;lt;= 1.2 mil&lt;/font&gt;" style="rounded=1;whiteSpace=wrap;html=1;shadow=0;comic=0;labelBackgroundColor=none;strokeWidth=1;fontFamily=Verdana;fontSize=12;align=center;arcSize=50;" vertex="1" parent="1c1d494c118603dd-4">
          <mxGeometry x="80" y="420" width="140" height="40" as="geometry" />
        </mxCell>
        <mxCell id="x3NgMWRlayC8SavMCuSD-37" value="&lt;font style=&quot;font-size: 8px;&quot;&gt;request data about all regions&amp;nbsp;&lt;/font&gt;" style="rounded=1;whiteSpace=wrap;html=1;shadow=0;comic=0;labelBackgroundColor=none;strokeWidth=1;fontFamily=Verdana;fontSize=12;align=center;arcSize=50;" vertex="1" parent="1c1d494c118603dd-4">
          <mxGeometry x="400" y="415" width="140" height="40" as="geometry" />
        </mxCell>
        <mxCell id="x3NgMWRlayC8SavMCuSD-36" value="&lt;font style=&quot;font-size: 8px;&quot;&gt;request data about number of residents&amp;nbsp;of a territory with area &amp;gt;= 39&#39;000 km^2&lt;/font&gt;" style="rounded=1;whiteSpace=wrap;html=1;shadow=0;comic=0;labelBackgroundColor=none;strokeWidth=1;fontFamily=Verdana;fontSize=12;align=center;arcSize=50;" vertex="1" parent="1c1d494c118603dd-4">
          <mxGeometry x="385" y="350" width="155" height="40" as="geometry" />
        </mxCell>
        <mxCell id="x3NgMWRlayC8SavMCuSD-35" value="&lt;font style=&quot;font-size: 8px;&quot;&gt;request data of a total sum of residents&amp;nbsp;of territories with area &amp;lt;38&#39;000 km^2&lt;/font&gt;" style="rounded=1;whiteSpace=wrap;html=1;shadow=0;comic=0;labelBackgroundColor=none;strokeWidth=1;fontFamily=Verdana;fontSize=12;align=center;arcSize=50;" vertex="1" parent="1c1d494c118603dd-4">
          <mxGeometry x="350" y="280" width="200" height="30" as="geometry" />
        </mxCell>
        <mxCell id="x3NgMWRlayC8SavMCuSD-34" value="&lt;font style=&quot;font-size: 8px;&quot;&gt;request data of&amp;nbsp; mximum &amp;amp; minimum area of all regions&lt;/font&gt;" style="rounded=1;whiteSpace=wrap;html=1;shadow=0;comic=0;labelBackgroundColor=none;strokeWidth=1;fontFamily=Verdana;fontSize=12;align=center;arcSize=50;" vertex="1" parent="1c1d494c118603dd-4">
          <mxGeometry x="70" y="260" width="140" height="40" as="geometry" />
        </mxCell>
        <mxCell id="x3NgMWRlayC8SavMCuSD-43" value="&lt;font style=&quot;font-size: 8px;&quot;&gt;request data about area with all info (using id)&lt;/font&gt;" style="rounded=1;whiteSpace=wrap;html=1;shadow=0;comic=0;labelBackgroundColor=none;strokeWidth=1;fontFamily=Verdana;fontSize=12;align=center;arcSize=50;" vertex="1" parent="1c1d494c118603dd-4">
          <mxGeometry x="80" y="310" width="140" height="40" as="geometry" />
        </mxCell>
        <mxCell id="x3NgMWRlayC8SavMCuSD-44" value="&lt;font style=&quot;font-size: 8px;&quot;&gt;request for deletion&lt;/font&gt;" style="rounded=1;whiteSpace=wrap;html=1;shadow=0;comic=0;labelBackgroundColor=none;strokeWidth=1;fontFamily=Verdana;fontSize=12;align=center;arcSize=50;" vertex="1" parent="1c1d494c118603dd-4">
          <mxGeometry x="100" y="365" width="140" height="40" as="geometry" />
        </mxCell>
        <mxCell id="x3NgMWRlayC8SavMCuSD-46" value="" style="whiteSpace=wrap;html=1;rounded=0;shadow=0;comic=0;labelBackgroundColor=none;strokeWidth=1;fillColor=#000000;fontFamily=Verdana;fontSize=12;align=center;rotation=0;" vertex="1" parent="1c1d494c118603dd-4">
          <mxGeometry x="52.5" y="520" width="495" height="10" as="geometry" />
        </mxCell>
        <mxCell id="x3NgMWRlayC8SavMCuSD-74" style="edgeStyle=orthogonalEdgeStyle;rounded=0;orthogonalLoop=1;jettySize=auto;html=1;" edge="1" parent="1c1d494c118603dd-4" source="x3NgMWRlayC8SavMCuSD-45" target="x3NgMWRlayC8SavMCuSD-46">
          <mxGeometry relative="1" as="geometry">
            <Array as="points">
              <mxPoint x="580" y="225" />
              <mxPoint x="580" y="510" />
              <mxPoint x="520" y="510" />
            </Array>
          </mxGeometry>
        </mxCell>
        <mxCell id="x3NgMWRlayC8SavMCuSD-45" value="&lt;font style=&quot;font-size: 8px;&quot;&gt;request to add area&lt;/font&gt;" style="rounded=1;whiteSpace=wrap;html=1;shadow=0;comic=0;labelBackgroundColor=none;strokeWidth=1;fontFamily=Verdana;fontSize=12;align=center;arcSize=50;" vertex="1" parent="1c1d494c118603dd-4">
          <mxGeometry x="400" y="205" width="140" height="40" as="geometry" />
        </mxCell>
        <mxCell id="x3NgMWRlayC8SavMCuSD-49" style="edgeStyle=orthogonalEdgeStyle;rounded=0;orthogonalLoop=1;jettySize=auto;html=1;exitX=0.5;exitY=1;exitDx=0;exitDy=0;" edge="1" parent="1c1d494c118603dd-4" source="x3NgMWRlayC8SavMCuSD-35" target="x3NgMWRlayC8SavMCuSD-35">
          <mxGeometry relative="1" as="geometry" />
        </mxCell>
        <mxCell id="x3NgMWRlayC8SavMCuSD-66" style="edgeStyle=orthogonalEdgeStyle;rounded=0;orthogonalLoop=1;jettySize=auto;html=1;entryX=1;entryY=0.5;entryDx=0;entryDy=0;" edge="1" parent="1c1d494c118603dd-4" source="60571a20871a0731-3" target="1c1d494c118603dd-5">
          <mxGeometry relative="1" as="geometry">
            <Array as="points">
              <mxPoint x="240" y="225" />
            </Array>
          </mxGeometry>
        </mxCell>
        <mxCell id="x3NgMWRlayC8SavMCuSD-67" style="edgeStyle=orthogonalEdgeStyle;rounded=0;orthogonalLoop=1;jettySize=auto;html=1;" edge="1" parent="1c1d494c118603dd-4" source="60571a20871a0731-3" target="x3NgMWRlayC8SavMCuSD-34">
          <mxGeometry relative="1" as="geometry">
            <Array as="points">
              <mxPoint x="250" y="275" />
            </Array>
          </mxGeometry>
        </mxCell>
        <mxCell id="x3NgMWRlayC8SavMCuSD-69" style="edgeStyle=orthogonalEdgeStyle;rounded=0;orthogonalLoop=1;jettySize=auto;html=1;entryX=1;entryY=0.5;entryDx=0;entryDy=0;" edge="1" parent="1c1d494c118603dd-4" source="60571a20871a0731-3" target="x3NgMWRlayC8SavMCuSD-38">
          <mxGeometry relative="1" as="geometry">
            <Array as="points">
              <mxPoint x="280" y="440" />
            </Array>
          </mxGeometry>
        </mxCell>
        <mxCell id="x3NgMWRlayC8SavMCuSD-70" style="edgeStyle=orthogonalEdgeStyle;rounded=0;orthogonalLoop=1;jettySize=auto;html=1;entryX=0;entryY=0.75;entryDx=0;entryDy=0;" edge="1" parent="1c1d494c118603dd-4" source="60571a20871a0731-3" target="x3NgMWRlayC8SavMCuSD-45">
          <mxGeometry relative="1" as="geometry">
            <Array as="points">
              <mxPoint x="370" y="235" />
            </Array>
          </mxGeometry>
        </mxCell>
        <mxCell id="x3NgMWRlayC8SavMCuSD-71" style="edgeStyle=orthogonalEdgeStyle;rounded=0;orthogonalLoop=1;jettySize=auto;html=1;entryX=0;entryY=0.5;entryDx=0;entryDy=0;" edge="1" parent="1c1d494c118603dd-4" source="60571a20871a0731-3" target="x3NgMWRlayC8SavMCuSD-35">
          <mxGeometry relative="1" as="geometry">
            <Array as="points">
              <mxPoint x="330" y="295" />
            </Array>
          </mxGeometry>
        </mxCell>
        <mxCell id="x3NgMWRlayC8SavMCuSD-72" style="edgeStyle=orthogonalEdgeStyle;rounded=0;orthogonalLoop=1;jettySize=auto;html=1;entryX=0;entryY=0.75;entryDx=0;entryDy=0;" edge="1" parent="1c1d494c118603dd-4" source="60571a20871a0731-3" target="x3NgMWRlayC8SavMCuSD-37">
          <mxGeometry relative="1" as="geometry" />
        </mxCell>
        <mxCell id="x3NgMWRlayC8SavMCuSD-73" style="edgeStyle=orthogonalEdgeStyle;rounded=0;orthogonalLoop=1;jettySize=auto;html=1;entryX=0;entryY=0.5;entryDx=0;entryDy=0;" edge="1" parent="1c1d494c118603dd-4" source="60571a20871a0731-3" target="x3NgMWRlayC8SavMCuSD-36">
          <mxGeometry relative="1" as="geometry">
            <Array as="points">
              <mxPoint x="320" y="370" />
            </Array>
          </mxGeometry>
        </mxCell>
        <mxCell id="60571a20871a0731-3" value="" style="whiteSpace=wrap;html=1;rounded=0;shadow=0;comic=0;labelBackgroundColor=none;strokeWidth=1;fillColor=#000000;fontFamily=Verdana;fontSize=12;align=center;rotation=0;" parent="1c1d494c118603dd-4" vertex="1">
          <mxGeometry x="55" y="180" width="495" height="10" as="geometry" />
        </mxCell>
        <mxCell id="x3NgMWRlayC8SavMCuSD-76" style="edgeStyle=orthogonalEdgeStyle;rounded=0;orthogonalLoop=1;jettySize=auto;html=1;entryX=0.864;entryY=-0.089;entryDx=0;entryDy=0;entryPerimeter=0;" edge="1" parent="1c1d494c118603dd-4" source="x3NgMWRlayC8SavMCuSD-36" target="x3NgMWRlayC8SavMCuSD-46">
          <mxGeometry relative="1" as="geometry">
            <Array as="points">
              <mxPoint x="560" y="370" />
              <mxPoint x="560" y="490" />
              <mxPoint x="480" y="490" />
            </Array>
          </mxGeometry>
        </mxCell>
        <mxCell id="x3NgMWRlayC8SavMCuSD-78" style="edgeStyle=orthogonalEdgeStyle;rounded=0;orthogonalLoop=1;jettySize=auto;html=1;entryX=0.814;entryY=0.079;entryDx=0;entryDy=0;entryPerimeter=0;" edge="1" parent="1c1d494c118603dd-4" source="x3NgMWRlayC8SavMCuSD-37" target="x3NgMWRlayC8SavMCuSD-46">
          <mxGeometry relative="1" as="geometry" />
        </mxCell>
        <mxCell id="x3NgMWRlayC8SavMCuSD-79" style="edgeStyle=orthogonalEdgeStyle;rounded=0;orthogonalLoop=1;jettySize=auto;html=1;entryX=0.908;entryY=0.079;entryDx=0;entryDy=0;entryPerimeter=0;" edge="1" parent="1c1d494c118603dd-4" source="x3NgMWRlayC8SavMCuSD-35" target="x3NgMWRlayC8SavMCuSD-46">
          <mxGeometry relative="1" as="geometry">
            <Array as="points">
              <mxPoint x="570" y="295" />
              <mxPoint x="570" y="500" />
              <mxPoint x="502" y="500" />
            </Array>
          </mxGeometry>
        </mxCell>
        <mxCell id="x3NgMWRlayC8SavMCuSD-80" style="edgeStyle=orthogonalEdgeStyle;rounded=0;orthogonalLoop=1;jettySize=auto;html=1;entryX=0.037;entryY=0.079;entryDx=0;entryDy=0;entryPerimeter=0;" edge="1" parent="1c1d494c118603dd-4" source="1c1d494c118603dd-5" target="x3NgMWRlayC8SavMCuSD-46">
          <mxGeometry relative="1" as="geometry">
            <Array as="points">
              <mxPoint x="30" y="225" />
              <mxPoint x="30" y="500" />
              <mxPoint x="71" y="500" />
            </Array>
          </mxGeometry>
        </mxCell>
        <mxCell id="x3NgMWRlayC8SavMCuSD-81" style="edgeStyle=orthogonalEdgeStyle;rounded=0;orthogonalLoop=1;jettySize=auto;html=1;entryX=0.066;entryY=-0.005;entryDx=0;entryDy=0;entryPerimeter=0;" edge="1" parent="1c1d494c118603dd-4" source="x3NgMWRlayC8SavMCuSD-34" target="x3NgMWRlayC8SavMCuSD-46">
          <mxGeometry relative="1" as="geometry">
            <Array as="points">
              <mxPoint x="40" y="280" />
              <mxPoint x="40" y="490" />
              <mxPoint x="85" y="490" />
            </Array>
          </mxGeometry>
        </mxCell>
        <mxCell id="x3NgMWRlayC8SavMCuSD-82" style="edgeStyle=orthogonalEdgeStyle;rounded=0;orthogonalLoop=1;jettySize=auto;html=1;entryX=0.096;entryY=-0.174;entryDx=0;entryDy=0;entryPerimeter=0;" edge="1" parent="1c1d494c118603dd-4" source="x3NgMWRlayC8SavMCuSD-43" target="x3NgMWRlayC8SavMCuSD-46">
          <mxGeometry relative="1" as="geometry">
            <Array as="points">
              <mxPoint x="50" y="330" />
              <mxPoint x="50" y="480" />
              <mxPoint x="100" y="480" />
            </Array>
          </mxGeometry>
        </mxCell>
        <mxCell id="x3NgMWRlayC8SavMCuSD-83" style="edgeStyle=orthogonalEdgeStyle;rounded=0;orthogonalLoop=1;jettySize=auto;html=1;entryX=0.13;entryY=0.079;entryDx=0;entryDy=0;entryPerimeter=0;" edge="1" parent="1c1d494c118603dd-4" source="x3NgMWRlayC8SavMCuSD-44" target="x3NgMWRlayC8SavMCuSD-46">
          <mxGeometry relative="1" as="geometry">
            <Array as="points">
              <mxPoint x="60" y="385" />
              <mxPoint x="60" y="470" />
              <mxPoint x="117" y="470" />
            </Array>
          </mxGeometry>
        </mxCell>
        <mxCell id="x3NgMWRlayC8SavMCuSD-84" style="edgeStyle=orthogonalEdgeStyle;rounded=0;orthogonalLoop=1;jettySize=auto;html=1;entryX=0.198;entryY=0.163;entryDx=0;entryDy=0;entryPerimeter=0;" edge="1" parent="1c1d494c118603dd-4" source="x3NgMWRlayC8SavMCuSD-38" target="x3NgMWRlayC8SavMCuSD-46">
          <mxGeometry relative="1" as="geometry" />
        </mxCell>
        <mxCell id="x3NgMWRlayC8SavMCuSD-89" style="edgeStyle=orthogonalEdgeStyle;rounded=0;orthogonalLoop=1;jettySize=auto;html=1;entryX=0.556;entryY=0.249;entryDx=0;entryDy=0;entryPerimeter=0;" edge="1" parent="1c1d494c118603dd-4" source="60571a20871a0731-8" target="60571a20871a0731-3">
          <mxGeometry relative="1" as="geometry" />
        </mxCell>
        <mxCell id="x3NgMWRlayC8SavMCuSD-87" style="edgeStyle=orthogonalEdgeStyle;rounded=0;orthogonalLoop=1;jettySize=auto;html=1;entryX=0.5;entryY=0;entryDx=0;entryDy=0;" edge="1" parent="1c1d494c118603dd-1" source="x3NgMWRlayC8SavMCuSD-22" target="x3NgMWRlayC8SavMCuSD-21">
          <mxGeometry relative="1" as="geometry" />
        </mxCell>
      </root>
    </mxGraphModel>
  </diagram>
</mxfile>
